<svg width="1794" height="889" viewBox="0 0 1794 889" fill="none" xmlns="http://www.w3.org/2000/svg">
<path d="M1729 415.959V605.781C1729 647.228 1719.96 684.54 1701.87 717.717C1683.78 750.862 1658.91 776.867 1627.26 795.733C1595.61 814.567 1560.21 824 1521 824C1481.82 824 1446.39 814.567 1414.74 795.733C1383.09 776.9 1358.22 750.894 1340.13 717.717C1322.04 684.54 1313 647.228 1313 605.781V283.219C1313 241.772 1303.96 204.46 1285.87 171.283C1267.78 138.138 1242.91 112.133 1211.26 93.2667C1179.61 74.433 1144.18 65 1105 65C1065.82 65 1030.39 74.433 998.739 93.2667C967.087 112.1 942.217 138.106 924.13 171.283C906.043 204.46 897 241.772 897 283.219V466.386V605.781C897 647.228 887.957 684.54 869.87 717.717C851.783 750.862 826.913 776.867 795.261 795.733C763.609 814.567 728.21 824 689 824C649.822 824 614.391 814.567 582.739 795.733C551.087 776.9 526.217 750.894 508.13 717.717C490.043 684.54 481 647.228 481 605.781V283.219C481 241.772 471.956 204.46 453.87 171.283C435.783 138.138 410.913 112.133 379.261 93.2667C347.609 74.433 312.178 65 273 65C233.822 65 198.391 74.433 166.739 93.2667C135.087 112.1 110.217 138.106 92.1304 171.283C74.0435 204.46 65 241.772 65 283.219V587.432" stroke="url(#paint0_linear_2105_2519)" stroke-width="130"/>
<defs>
<linearGradient id="paint0_linear_2105_2519" x1="897" y1="65" x2="897" y2="824" gradientUnits="userSpaceOnUse">
<stop stop-color="#BBF27B"/>
<stop offset="1" stop-color="#FF65AA"/>
</linearGradient>
</defs>
</svg>
