<svg width="1432" height="531" viewBox="0 0 1432 531" fill="none" xmlns="http://www.w3.org/2000/svg">
<mask id="mask0_2129_3525" style="mask-type:alpha" maskUnits="userSpaceOnUse" x="0" y="0" width="1432" height="531">
<rect width="1432" height="531" fill="#EE87B5"/>
</mask>
<g mask="url(#mask0_2129_3525)">
<path d="M1323 155.468V292.021C1323 321.836 1316.49 348.677 1303.48 372.544C1290.47 396.387 1272.58 415.094 1249.81 428.666C1227.04 442.214 1201.58 449 1173.37 449C1145.19 449 1119.71 442.214 1096.94 428.666C1074.17 415.118 1056.28 396.41 1043.27 372.544C1030.26 348.677 1023.75 321.836 1023.75 292.021V59.9794C1023.75 30.1637 1017.24 3.32272 1004.23 -20.5437C991.223 -44.3869 973.333 -63.0943 950.564 -76.6659C927.795 -90.2142 902.307 -97 874.125 -97C845.943 -97 820.455 -90.2142 797.686 -76.6659C774.917 -63.1176 757.027 -44.4102 744.016 -20.5437C731.005 3.32272 724.5 30.1637 724.5 59.9794V191.744V292.021C724.5 321.836 717.995 348.677 704.984 372.544C691.973 396.387 674.083 415.094 651.314 428.666C628.545 442.214 603.081 449 574.875 449C546.693 449 521.205 442.214 498.436 428.666C475.667 415.118 457.777 396.41 444.766 372.544C431.755 348.677 425.25 321.836 425.25 292.021V59.9794C425.25 30.1637 418.745 3.32272 405.734 -20.5437C392.723 -44.3869 374.833 -63.0943 352.064 -76.6659C329.295 -90.2142 303.807 -97 275.625 -97C247.443 -97 221.955 -90.2142 199.186 -76.6659C176.417 -63.1176 158.527 -44.4102 145.516 -20.5437C132.505 3.32272 126 30.1637 126 59.9794V278.821" stroke="white" stroke-width="100"/>
</g>
</svg>
