<svg width="1432" height="984" viewBox="0 0 1432 984" fill="none" xmlns="http://www.w3.org/2000/svg">
<mask id="mask0_2108_2520" style="mask-type:alpha" maskUnits="userSpaceOnUse" x="0" y="0" width="1432" height="2384">
<rect width="1432" height="2484" fill="#EE87B5"/>
</mask>
<g mask="url(#mask0_2108_2520)">
<path d="M1586 405.959V595.781C1586 637.228 1576.96 674.54 1558.87 707.717C1540.78 740.862 1515.91 766.867 1484.26 785.733C1452.61 804.567 1417.21 814 1378 814C1338.82 814 1303.39 804.567 1271.74 785.733C1240.09 766.9 1215.22 740.894 1197.13 707.717C1179.04 674.54 1170 637.228 1170 595.781V273.219C1170 231.772 1160.96 194.46 1142.87 161.283C1124.78 128.138 1099.91 102.133 1068.26 83.2667C1036.61 64.433 1001.18 55 962 55C922.822 55 887.391 64.433 855.739 83.2667C824.087 102.1 799.217 128.106 781.13 161.283C763.043 194.46 754 231.772 754 273.219V456.386V595.781C754 637.228 744.957 674.54 726.87 707.717C708.783 740.862 683.913 766.867 652.261 785.733C620.609 804.567 585.21 814 546 814C506.822 814 471.391 804.567 439.739 785.733C408.087 766.9 383.217 740.894 365.13 707.717C347.043 674.54 338 637.228 338 595.781V273.219C338 231.772 328.956 194.46 310.87 161.283C292.783 128.138 267.913 102.133 236.261 83.2667C204.609 64.433 169.178 55 130 55C90.8224 55 55.3913 64.433 23.7391 83.2667C-7.91305 102.1 -32.7826 128.106 -50.8696 161.283C-68.9565 194.46 -78 231.772 -78 273.219V577.432" stroke="url(#paint0_linear_2108_2520)" stroke-width="130"/>
</g>
<defs>
<linearGradient id="paint0_linear_2108_2520" x1="754" y1="55" x2="754" y2="814" gradientUnits="userSpaceOnUse">
<stop stop-color="#BBF27B"/>
<stop offset="1" stop-color="#FF65AA"/>
</linearGradient>
</defs>
</svg>
