<svg width="1432" height="363" viewBox="0 0 1432 363" fill="none" xmlns="http://www.w3.org/2000/svg">
<mask id="mask0_2116_2902" style="mask-type:alpha" maskUnits="userSpaceOnUse" x="0" y="0" width="1432" height="363">
<rect width="1432" height="363" fill="white"/>
</mask>
<g mask="url(#mask0_2116_2902)">
<path d="M641.955 31H124.81C84.0458 31 51 64.0458 51 104.81C51 145.574 84.0458 178.62 124.81 178.62H641.955C682.719 178.62 715.765 145.574 715.765 104.81C715.765 64.0458 682.719 31 641.955 31Z" fill="url(#paint0_linear_2116_2902)"/>
<path d="M103.396 76.9612L104.099 89.4211L104.809 98.2947L105.518 91.3697L106.221 127.59L106.93 135.103L107.64 100.995L108.342 129.006L109.052 81.3203L109.762 119.888L110.464 112.203L111.174 79.4683L111.883 108.247L112.586 87.1996L113.295 114.71L114.005 82.5843L114.714 80.9759L115.417 118.024L116.127 77.2132L116.836 114.295L117.539 124.105L118.248 84.0626L118.958 128.157L119.66 111.217L120.37 81.757L121.079 99.0968L121.789 103.628L122.492 116.684L123.201 97.5387L123.911 92.3776L124.613 95.3214L125.323 85.44L126.032 108.726L126.742 91.777L127.444 92.2474L128.154 120.623L128.864 80.4216L129.573 131.949L130.276 96.5225L130.985 104.497L131.695 133.012L132.404 85.1166L133.114 96.9634L133.816 110.826L134.526 115.689L135.235 111.326L135.945 113.577L136.655 130.4L137.357 113.799L138.067 121.379L138.776 126.788L139.486 129.006L140.195 91.1975L140.905 116.462L141.607 104.409L142.317 75.0294L143.026 94.07L143.736 104.829L144.445 124.5L145.155 96.0815L145.865 77.335L146.567 108.142L147.277 131.437L147.986 94.5697L148.696 104.384L149.405 124.945L150.115 121.883L150.824 87.4138L151.527 104.124L152.236 133.86L152.946 113.698L153.656 108.386L154.365 120.397L155.068 126.935L155.777 80.1822L156.487 78.1959L157.196 114.878L157.906 132.722L158.608 124.159L159.318 78.0909L160.027 74.1517L160.737 96.7744L161.44 91.3991L162.149 80.4888L162.859 96.5225L163.568 131.987L164.271 126.477L164.98 125.394L165.69 103.38L166.399 84.957L167.102 80.5266L167.812 118.96L168.521 79.3507L169.231 98.0511L169.933 134.087L170.643 120.044L171.352 117.436L172.062 130.408L172.764 114.362L173.474 106.845L174.183 129.098L174.886 117.6L175.596 115.907L176.305 89.4799L177.015 92.6589L177.717 84.6127L178.427 88.3586L179.136 113.493L179.839 85.6332L180.548 110.406L181.258 78.6494L181.961 98.6012L182.67 114.4L183.38 134.482L184.089 81.5345L184.792 102.095L185.501 92.5455L186.211 117.969L186.914 79.9974L187.623 91.1387L188.333 104.157L189.042 119.662L189.745 89.4043L190.454 120.455L191.164 74.7565L191.866 123.811L192.576 111.292L193.279 122.673L193.988 91.9492L194.691 101.499L195.4 117.78L196.103 84.7765L196.806 129.887L197.515 81.0557L198.218 95.3424L198.927 125.222L199.63 112.409L200.332 94.9729L201.042 84.6421L201.745 77.9313L202.454 113.367L203.157 85.9271L203.866 122.333L204.569 124.898L205.278 93.1881L205.981 130.874L206.691 82.8993L207.4 117.923L208.103 75.8987L208.812 82.8447L209.515 125.142L210.224 114.005L210.927 104.304L211.637 95.2542L212.346 82.6011L213.049 133.612L213.758 78.9056L214.468 83.966L215.17 99.8737L215.88 130.45L216.59 108.306L217.299 83.3738L218.002 116.882L218.711 86.4059L219.421 125.197L220.13 104.657L220.833 134.41L221.542 114.505L222.252 132.84L222.961 100.953L223.671 91.6972L224.38 114.946L225.083 81.9292L225.793 121.976L226.502 122.131L227.212 95.7246L227.921 128.329L228.631 95.6028L229.34 79.2877L230.05 88.5392L230.752 87.3592L231.462 117.612L232.171 82.2694L232.881 95.7792L233.59 125.159L234.3 134.154L235.003 112.539L235.712 105.077L236.422 89.8621L237.131 82.4667L237.834 104.014L238.543 115.714L239.253 76.0205L239.956 111.594L240.665 94.4983L241.375 90.5382L242.084 116.449L242.787 105.665L243.496 98.597L244.206 84.8479L244.908 120.586L245.618 97.3204L246.321 130.265L247.03 97.2742L247.74 103.599L248.442 118.037L249.152 96.6233L249.854 78.431L250.564 105.341L251.273 90.1392L251.976 113.992L252.686 133.852L253.388 88.997L254.098 88.6526L254.8 107.71L255.51 128.287L256.213 78.6452L256.922 103.473L257.625 106.849L258.334 79.4095L259.037 88.409L259.746 121.518L260.449 95.2626L261.159 117.982L261.861 102.339L262.571 89.2573L263.273 92.9655L263.983 112.46L264.686 87.7917L265.388 83.882L266.098 127.905L266.8 130.971L267.51 117.138L268.212 130.669L268.922 96.3041L269.625 118.427L270.327 89.102L271.037 117.6L271.739 93.1965L272.449 84.7009L273.152 107.475L273.861 104.934L274.564 105.526L275.266 103.086L275.976 87.0316L276.679 129.195L277.381 79.4263L278.091 124.831L278.793 74.4079L279.503 106.433L280.205 114.114L280.908 76.2137L281.618 99.4915L282.32 101.579L283.03 73.967L283.732 121.094L284.435 123.66L285.145 94.1582L285.847 91.2773L286.55 81.0641L287.259 128.959L287.962 121.665L288.672 83.987L289.374 107.613L290.077 116.004L290.786 115.13L291.489 129.581L292.198 124.096L292.901 116.164L293.604 123.823L294.313 126.591L295.016 131.979L295.725 108.567L296.428 120.833L297.131 93.3602L297.84 127.674L298.543 131.853L299.252 86.4185L299.955 88.4678L300.665 127.326L301.367 112.674L302.07 113.812L302.779 119.557L303.482 90.135L304.191 130.778L304.894 128.518L305.604 130.702L306.306 114.664L307.016 89.8117L307.718 133.062L308.428 127.926L309.131 84.5833L309.84 128.111L310.543 76.7554L311.252 103.002L311.955 121.006L312.664 124.134L313.367 78.1203L314.077 122.211L314.779 96.4553L315.489 122.387L316.198 99.5587L316.901 117.478L317.61 120.598L318.313 95.8715L319.023 109.079L319.732 115.025L320.435 129.787L321.144 133.684L321.847 74.3575L322.556 131.823L323.266 122.026L323.975 84.2431L324.678 86.7712L325.388 106.488L326.097 90.8615L326.8 111.212L327.509 83.5964L328.219 77.6709L328.928 94.0574L329.631 86.9308L330.34 80.2704L331.05 116.634L331.76 124.865L332.469 78.9896L333.179 73.7444L333.881 104.187L334.591 98.8448L335.3 100.474L336.01 98.8574L336.719 87.2668L337.429 115.571L338.138 89.5135L338.848 90.2064L339.557 76.7638L340.267 79.5229L340.976 131.538L341.686 92.7639L342.395 83.2772L343.105 129.51L343.815 108.361L344.524 105.299L345.234 112.405L345.943 100.924L346.653 77.6499L347.362 99.7519L348.072 117.722L348.774 84.5581L349.484 75.3444L350.193 114.92L350.903 124.474L351.612 121.829L352.322 91.7266L353.031 107.643L353.734 92.0584L354.444 117.365L355.153 80.9297L355.863 74.0342L356.572 97.0054L357.275 97.4464L357.984 78.8468L358.694 124.13L359.403 97.3162L360.106 113.707L360.816 104.879L361.525 100.852L362.235 105.585L362.937 104.913L363.647 106.836L364.356 85.3686L365.059 93.2553L365.768 121.963L366.478 115.849L367.181 89.7739L367.89 84.7933L368.6 123.231L369.302 133.432L370.012 94.7251L370.721 132.731L371.424 113.862L372.133 101.868L372.843 84.5581L373.546 79.4767L374.255 82.0006L374.965 94.3429L375.667 131.714L376.377 86.9392L377.079 75.441L377.789 93.1251L378.499 121.593L379.201 119.721L379.911 117.457L380.62 106.505L381.323 91.0967L382.032 100.155L382.742 121.014L383.444 115.676L384.154 96.2579L384.857 88.1319L385.566 114.37L386.276 110.784L386.978 90.7692L387.688 115.303L388.397 77.3182L389.1 75.9911L389.81 82.303L390.519 132.365L391.222 131.03L391.931 121.27L392.641 126.927L393.343 129.06L394.053 135.028L394.762 129.329L395.472 121.409L396.175 87.0148L396.884 110.074L397.594 98.3618L398.303 120.859L399.006 132.101L399.715 110.368L400.425 118.918L401.134 97.1986L401.844 116.525L402.546 103.846L403.256 121.291L403.966 111.636L404.675 103.082L405.385 81.2699L406.094 113.249L406.804 123.748L407.506 121.707L408.216 92.7135L408.925 122.971L409.635 103.263L410.344 117.852L411.054 125.087L411.763 75.6384L412.473 97.0894L413.182 121.56L413.892 133.608L414.601 108.583L415.311 119.137L416.027 82.3408L416.737 79.3507L417.446 79.0106L418.156 129.774L418.866 74.4793L419.575 101.595L420.285 120.808L420.994 95.2752L421.704 133.579L422.413 124.164L423.123 82.9371L423.832 87.0442L424.542 121.833L425.251 130.215L425.961 74.4709L426.67 103.72L427.373 111.489L428.082 97.5849L428.792 133.096L429.501 128.896L430.211 86.662L430.921 91.9324L431.63 74.9832L432.34 107.529L433.042 128.842L433.752 124.088L434.461 122.937L435.171 108.016L435.88 131.912L436.583 84.5749L437.292 114.79L438.002 107.391L438.711 89.1481L439.421 98.891L440.124 100.63L440.833 96.4973L441.543 120.922L442.252 80.7198L442.962 130.711L443.664 127.002L444.374 118.351L445.083 116.756L445.793 76.8478L446.502 75.5754L447.205 76.0037L447.915 91.6133L448.624 115.046L449.334 98.597L450.043 128.833L450.753 125.251L451.455 132.012L452.165 78.389L452.874 76.4531L453.584 108.361L454.293 96.1571L455.003 78.6578L455.712 112.863L456.422 92.4909L457.132 85.8851L457.834 110.099L458.544 87.4558L459.253 127.599L459.963 111.326L460.672 118.133L461.382 121.262L462.091 75.0294L462.801 80.9171L463.51 90.9833L464.227 88.4636L464.936 77.377L465.646 110.54L466.355 94.1791L467.065 111.489L467.774 124.537L468.484 113.581L469.193 129.791L469.91 132.479L470.619 134.595L471.329 98.3115L472.038 117.898L472.748 95.2332L473.457 94.5991L474.167 110.939L474.877 82.8993L475.586 90.4668L476.296 82.6431L477.005 83.5292L477.715 105.005L478.424 94.0196L479.134 84.9235L479.843 122.375L480.553 119.452L481.262 125.323L481.965 104.947L482.674 83.0505L483.384 106.773L484.093 87.1198L484.803 109.919L485.512 135.032L486.222 80.8709L486.932 113.761L487.641 127.238L488.351 117.629L489.06 111.078L489.77 74.6893L490.472 97.5219L491.182 127.376L491.891 92.0752L492.601 104.909L493.31 104.3L494.02 77.2762L494.729 112.241L495.439 133.176L496.148 95.3046L496.858 114.979L497.567 89.9167L498.277 95.4558L498.987 84.0584L499.696 131.87L500.406 81.0263L501.122 94.4899L501.832 131.072L502.541 127.271L503.251 111.888L503.96 104.275L504.67 110.368L505.386 89.7067L506.095 80.5518L506.805 77.5449L507.515 96.4595L508.224 115.147L508.934 116.369L509.643 116.52L510.353 87.4516L511.062 99.8905L511.772 98.0679L512.481 90.618L513.191 83.6342L513.9 96.6191L514.61 133.092L515.319 81.4673L516.029 97.3666L516.738 118.398L517.448 84.0668L518.157 117.499L518.867 130.656L519.576 110.519L520.286 129.484L520.995 86.956L521.705 126.213L522.421 103.666L523.131 75.8777L523.84 134.536L524.55 112.8L525.26 101.054L525.969 84.3313L526.679 96.1655L527.388 120.514L528.098 81.6058L528.807 98.555L529.517 119.993L530.233 86.8888L530.943 101.873L531.652 84.4867L532.362 106.689L533.071 128.078L533.788 80.1108L534.497 88.7954L535.207 117.142L535.916 105.829L536.626 105.291L537.335 76.0247L538.045 117.692L538.754 93.3183L539.464 117.281L540.173 87.6615L540.883 105.425L541.592 117.541L542.295 108.105L543.005 129.892L543.714 89.3161L544.417 105.602L545.126 120.56L545.836 87.6909L546.545 109.646L547.255 132.731L547.964 88.3334L548.674 116.252L549.383 78.7796L550.093 117.789L550.802 83.924L551.512 87.3886L552.228 117.138L552.938 108.491L553.647 97.1146L554.357 77.6625L555.066 123.009L555.776 117.78L556.485 94.5025L557.195 107.298L557.904 110.204L558.614 100.684L559.323 97.2154L560.033 133.78L560.743 113.619L561.452 77.4399L562.162 105.816L562.864 106.261L563.574 90.8195L564.283 132.201L564.993 100.999L565.702 101.99L566.405 94.2421L567.115 108.781L567.824 133.348L568.534 104.98L569.236 97.6605L569.946 84.2515L570.655 116.453L571.365 123.958L572.074 120.14L572.777 90.3576L573.486 73.8536L574.196 86.935L574.905 92.6043L575.615 102.154L576.325 85.4988L577.034 86.5823L577.744 110.146L578.453 115.277L579.17 131.299L579.879 106.593L580.589 85.2804L581.305 102.679L582.014 121.812L582.724 110.339L583.44 120.947L584.15 102.213L584.859 129.35L585.569 113.522L586.278 127.061L586.988 103.048L587.698 126.624L588.407 77.7339L589.117 122.236L589.826 105.199L590.536 106.261L591.245 106.685L591.955 113.094L592.664 81.5093L593.374 134.045L594.083 106.278L594.8 132.764L595.509 93.587L596.219 103.456L596.928 127.477L597.638 129.531L598.347 106.681L599.064 95.8044L599.773 123.051L600.49 103.006L601.199 123.618L601.909 130.732L602.625 91.5209L603.335 117.335L604.044 121.337L604.754 88.3586L605.47 76.5413L606.18 97.312L606.889 103.011L607.599 123.794L608.308 134.927L609.018 81.3077L609.734 117.839L610.444 82.2568L611.153 110.2L611.87 99.7267L612.579 131.492L613.295 78.3932L614.005 123.559L614.715 107.088L615.431 90.8321L616.14 133.894L616.85 83.1891L617.566 119.385L618.276 127.149L618.985 115.353L619.702 106.832L620.411 124.827L621.121 74.4793L621.837 78.1077L622.547 97.1188L623.263 103.855L623.973 90.1602L624.689 107.903L625.399 118.759L626.108 95.1366L626.825 79.7917L627.534 134.587L628.244 124.34L628.96 90.5634L629.676 82.3954L630.379 99.9325L631.089 124.919L631.798 125.961L632.508 116.499L633.224 93.6248L633.934 89.2951L634.643 104.816L635.36 107.202L636.069 102.288L636.786 115.336L637.495 90.3156L638.205 115.025L638.914 91.5083L639.63 95.7624L640.34 111.557L641.05 135.07L641.766 127.057L642.482 97.5177L643.192 96.3629L643.908 117.302L644.618 88.0689L645.327 124.264L646.044 82.3198L646.76 90.9119L647.47 91.3487L648.186 112.523L648.903 89.8159L649.612 121.955L650.328 73.778L651.045 121.081L651.754 115.937L652.471 110.129L653.187 81.988L653.897 89.7865L654.613 124.353L655.323 75.441L656.039 84.8899L656.756 110.33L657.472 121.53L658.188 80.4846L658.905 121.06L659.621 93.5786L660.331 132.945L661.047 131.941L661.77 87.9891L662.487 83.336L663.21 108.18" stroke="white" stroke-width="2.2734" stroke-linecap="round" stroke-linejoin="round"/>
<path d="M103.396 76.9612L104.099 89.4211L104.809 98.2947L105.518 91.3697L106.221 127.59L106.93 135.103L107.64 100.995L108.342 129.006L109.052 81.3203L109.762 119.888L110.464 112.203L111.174 79.4683L111.883 108.247L112.586 87.1996L113.295 114.71L114.005 82.5843L114.714 80.9759L115.417 118.024L116.127 77.2132L116.836 114.295L117.539 124.105L118.248 84.0626L118.958 128.157L119.66 111.217L120.37 81.757L121.079 99.0968L121.789 103.628L122.492 116.684L123.201 97.5387L123.911 92.3776L124.613 95.3214L125.323 85.44L126.032 108.726L126.742 91.777L127.444 92.2474L128.154 120.623L128.864 80.4216L129.573 131.949L130.276 96.5225L130.985 104.497L131.695 133.012L132.404 85.1166L133.114 96.9634L133.816 110.826L134.526 115.689L135.235 111.326L135.945 113.577L136.655 130.4L137.357 113.799L138.067 121.379L138.776 126.788L139.486 129.006L140.195 91.1975L140.905 116.462L141.607 104.409L142.317 75.0294L143.026 94.07L143.736 104.829L144.445 124.5L145.155 96.0815L145.865 77.335L146.567 108.142L147.277 131.437L147.986 94.5697L148.696 104.384L149.405 124.945L150.115 121.883L150.824 87.4138L151.527 104.124L152.236 133.86L152.946 113.698L153.656 108.386L154.365 120.397L155.068 126.935L155.777 80.1822L156.487 78.1959L157.196 114.878L157.906 132.722L158.608 124.159L159.318 78.0909L160.027 74.1517L160.737 96.7744L161.44 91.3991L162.149 80.4888L162.859 96.5225L163.568 131.987L164.271 126.477L164.98 125.394L165.69 103.38L166.399 84.957L167.102 80.5266L167.812 118.96L168.521 79.3507L169.231 98.0511L169.933 134.087L170.643 120.044L171.352 117.436L172.062 130.408L172.764 114.362L173.474 106.845L174.183 129.098L174.886 117.6L175.596 115.907L176.305 89.4799L177.015 92.6589L177.717 84.6127L178.427 88.3586L179.136 113.493L179.839 85.6332L180.548 110.406L181.258 78.6494L181.961 98.6012L182.67 114.4L183.38 134.482L184.089 81.5345L184.792 102.095L185.501 92.5455L186.211 117.969L186.914 79.9974L187.623 91.1387L188.333 104.157L189.042 119.662L189.745 89.4043L190.454 120.455L191.164 74.7565L191.866 123.811L192.576 111.292L193.279 122.673L193.988 91.9492L194.691 101.499L195.4 117.78L196.103 84.7765L196.806 129.887L197.515 81.0557L198.218 95.3424L198.927 125.222L199.63 112.409L200.332 94.9729L201.042 84.6421L201.745 77.9313L202.454 113.367L203.157 85.9271L203.866 122.333L204.569 124.898L205.278 93.1881L205.981 130.874L206.691 82.8993L207.4 117.923L208.103 75.8987L208.812 82.8447L209.515 125.142L210.224 114.005L210.927 104.304L211.637 95.2542L212.346 82.6011L213.049 133.612L213.758 78.9056L214.468 83.966L215.17 99.8737L215.88 130.45L216.59 108.306L217.299 83.3738L218.002 116.882L218.711 86.4059L219.421 125.197L220.13 104.657L220.833 134.41L221.542 114.505L222.252 132.84L222.961 100.953L223.671 91.6972L224.38 114.946L225.083 81.9292L225.793 121.976L226.502 122.131L227.212 95.7246L227.921 128.329L228.631 95.6028L229.34 79.2877L230.05 88.5392L230.752 87.3592L231.462 117.612L232.171 82.2694L232.881 95.7792L233.59 125.159L234.3 134.154L235.003 112.539L235.712 105.077L236.422 89.8621L237.131 82.4667L237.834 104.014L238.543 115.714L239.253 76.0205L239.956 111.594L240.665 94.4983L241.375 90.5382L242.084 116.449L242.787 105.665L243.496 98.597L244.206 84.8479L244.908 120.586L245.618 97.3204L246.321 130.265L247.03 97.2742L247.74 103.599L248.442 118.037L249.152 96.6233L249.854 78.431L250.564 105.341L251.273 90.1392L251.976 113.992L252.686 133.852L253.388 88.997L254.098 88.6526L254.8 107.71L255.51 128.287L256.213 78.6452L256.922 103.473L257.625 106.849L258.334 79.4095L259.037 88.409L259.746 121.518L260.449 95.2626L261.159 117.982L261.861 102.339L262.571 89.2573L263.273 92.9655L263.983 112.46L264.686 87.7917L265.388 83.882L266.098 127.905L266.8 130.971L267.51 117.138L268.212 130.669L268.922 96.3041L269.625 118.427L270.327 89.102L271.037 117.6L271.739 93.1965L272.449 84.7009L273.152 107.475L273.861 104.934L274.564 105.526L275.266 103.086L275.976 87.0316L276.679 129.195L277.381 79.4263L278.091 124.831L278.793 74.4079L279.503 106.433L280.205 114.114L280.908 76.2137L281.618 99.4915L282.32 101.579L283.03 73.967L283.732 121.094L284.435 123.66L285.145 94.1582L285.847 91.2773L286.55 81.0641L287.259 128.959L287.962 121.665L288.672 83.987L289.374 107.613L290.077 116.004L290.786 115.13L291.489 129.581L292.198 124.096L292.901 116.164L293.604 123.823L294.313 126.591L295.016 131.979L295.725 108.567L296.428 120.833L297.131 93.3602L297.84 127.674L298.543 131.853L299.252 86.4185L299.955 88.4678L300.665 127.326L301.367 112.674L302.07 113.812L302.779 119.557L303.482 90.135L304.191 130.778L304.894 128.518L305.604 130.702L306.306 114.664L307.016 89.8117L307.718 133.062L308.428 127.926L309.131 84.5833L309.84 128.111L310.543 76.7554L311.252 103.002L311.955 121.006L312.664 124.134L313.367 78.1203L314.077 122.211L314.779 96.4553L315.489 122.387L316.198 99.5587L316.901 117.478L317.61 120.598L318.313 95.8715L319.023 109.079L319.732 115.025L320.435 129.787L321.144 133.684L321.847 74.3575L322.556 131.823L323.266 122.026L323.975 84.2431L324.678 86.7712L325.388 106.488L326.097 90.8615L326.8 111.212L327.509 83.5964L328.219 77.6709L328.928 94.0574L329.631 86.9308L330.34 80.2704L331.05 116.634L331.76 124.865L332.469 78.9896L333.179 73.7444L333.881 104.187L334.591 98.8448L335.3 100.474L336.01 98.8574L336.719 87.2668L337.429 115.571L338.138 89.5135L338.848 90.2064L339.557 76.7638L340.267 79.5229L340.976 131.538L341.686 92.7639L342.395 83.2772L343.105 129.51L343.815 108.361L344.524 105.299L345.234 112.405L345.943 100.924L346.653 77.6499L347.362 99.7519L348.072 117.722L348.774 84.5581L349.484 75.3444L350.193 114.92L350.903 124.474L351.612 121.829L352.322 91.7266L353.031 107.643L353.734 92.0584L354.444 117.365L355.153 80.9297L355.863 74.0342L356.572 97.0054L357.275 97.4464L357.984 78.8468L358.694 124.13L359.403 97.3162L360.106 113.707L360.816 104.879L361.525 100.852L362.235 105.585L362.937 104.913L363.647 106.836L364.356 85.3686L365.059 93.2553L365.768 121.963L366.478 115.849L367.181 89.7739L367.89 84.7933L368.6 123.231L369.302 133.432L370.012 94.7251L370.721 132.731L371.424 113.862L372.133 101.868L372.843 84.5581L373.546 79.4767L374.255 82.0006L374.965 94.3429L375.667 131.714L376.377 86.9392L377.079 75.441L377.789 93.1251L378.499 121.593L379.201 119.721L379.911 117.457L380.62 106.505L381.323 91.0967L382.032 100.155L382.742 121.014L383.444 115.676L384.154 96.2579L384.857 88.1319L385.566 114.37L386.276 110.784L386.978 90.7692L387.688 115.303L388.397 77.3182L389.1 75.9911L389.81 82.303L390.519 132.365L391.222 131.03L391.931 121.27L392.641 126.927L393.343 129.06L394.053 135.028L394.762 129.329L395.472 121.409L396.175 87.0148L396.884 110.074L397.594 98.3618L398.303 120.859L399.006 132.101L399.715 110.368L400.425 118.918L401.134 97.1986L401.844 116.525L402.546 103.846L403.256 121.291L403.966 111.636L404.675 103.082L405.385 81.2699L406.094 113.249L406.804 123.748L407.506 121.707L408.216 92.7135L408.925 122.971L409.635 103.263L410.344 117.852L411.054 125.087L411.763 75.6384L412.473 97.0894L413.182 121.56L413.892 133.608L414.601 108.583L415.311 119.137L416.027 82.3408L416.737 79.3507L417.446 79.0106L418.156 129.774L418.866 74.4793L419.575 101.595L420.285 120.808L420.994 95.2752L421.704 133.579L422.413 124.164L423.123 82.9371L423.832 87.0442L424.542 121.833L425.251 130.215L425.961 74.4709L426.67 103.72L427.373 111.489L428.082 97.5849L428.792 133.096L429.501 128.896L430.211 86.662L430.921 91.9324L431.63 74.9832L432.34 107.529L433.042 128.842L433.752 124.088L434.461 122.937L435.171 108.016L435.88 131.912L436.583 84.5749L437.292 114.79L438.002 107.391L438.711 89.1481L439.421 98.891L440.124 100.63L440.833 96.4973L441.543 120.922L442.252 80.7198L442.962 130.711L443.664 127.002L444.374 118.351L445.083 116.756L445.793 76.8478L446.502 75.5754L447.205 76.0037L447.915 91.6133L448.624 115.046L449.334 98.597L450.043 128.833L450.753 125.251L451.455 132.012L452.165 78.389L452.874 76.4531L453.584 108.361L454.293 96.1571L455.003 78.6578L455.712 112.863L456.422 92.4909L457.132 85.8851L457.834 110.099L458.544 87.4558L459.253 127.599L459.963 111.326L460.672 118.133L461.382 121.262L462.091 75.0294L462.801 80.9171L463.51 90.9833L464.227 88.4636L464.936 77.377L465.646 110.54L466.355 94.1791L467.065 111.489L467.774 124.537L468.484 113.581L469.193 129.791L469.91 132.479L470.619 134.595L471.329 98.3115L472.038 117.898L472.748 95.2332L473.457 94.5991L474.167 110.939L474.877 82.8993L475.586 90.4668L476.296 82.6431L477.005 83.5292L477.715 105.005L478.424 94.0196L479.134 84.9235L479.843 122.375L480.553 119.452L481.262 125.323L481.965 104.947L482.674 83.0505L483.384 106.773L484.093 87.1198L484.803 109.919L485.512 135.032L486.222 80.8709L486.932 113.761L487.641 127.238L488.351 117.629L489.06 111.078L489.77 74.6893L490.472 97.5219L491.182 127.376L491.891 92.0752L492.601 104.909L493.31 104.3L494.02 77.2762L494.729 112.241L495.439 133.176L496.148 95.3046L496.858 114.979L497.567 89.9167L498.277 95.4558L498.987 84.0584L499.696 131.87L500.406 81.0263L501.122 94.4899L501.832 131.072L502.541 127.271L503.251 111.888L503.96 104.275L504.67 110.368L505.386 89.7067L506.095 80.5518L506.805 77.5449L507.515 96.4595L508.224 115.147L508.934 116.369L509.643 116.52L510.353 87.4516L511.062 99.8905L511.772 98.0679L512.481 90.618L513.191 83.6342L513.9 96.6191L514.61 133.092L515.319 81.4673L516.029 97.3666L516.738 118.398L517.448 84.0668L518.157 117.499L518.867 130.656L519.576 110.519L520.286 129.484L520.995 86.956L521.705 126.213L522.421 103.666L523.131 75.8777L523.84 134.536L524.55 112.8L525.26 101.054L525.969 84.3313L526.679 96.1655L527.388 120.514L528.098 81.6058L528.807 98.555L529.517 119.993L530.233 86.8888L530.943 101.873L531.652 84.4867L532.362 106.689L533.071 128.078L533.788 80.1108L534.497 88.7954L535.207 117.142L535.916 105.829L536.626 105.291L537.335 76.0247L538.045 117.692L538.754 93.3183L539.464 117.281L540.173 87.6615L540.883 105.425L541.592 117.541L542.295 108.105L543.005 129.892L543.714 89.3161L544.417 105.602L545.126 120.56L545.836 87.6909L546.545 109.646L547.255 132.731L547.964 88.3334L548.674 116.252L549.383 78.7796L550.093 117.789L550.802 83.924L551.512 87.3886L552.228 117.138L552.938 108.491L553.647 97.1146L554.357 77.6625L555.066 123.009L555.776 117.78L556.485 94.5025L557.195 107.298L557.904 110.204L558.614 100.684L559.323 97.2154L560.033 133.78L560.743 113.619L561.452 77.4399L562.162 105.816L562.864 106.261L563.574 90.8195L564.283 132.201L564.993 100.999L565.702 101.99L566.405 94.2421L567.115 108.781L567.824 133.348L568.534 104.98L569.236 97.6605L569.946 84.2515L570.655 116.453L571.365 123.958L572.074 120.14L572.777 90.3576L573.486 73.8536L574.196 86.935L574.905 92.6043L575.615 102.154L576.325 85.4988L577.034 86.5823L577.744 110.146L578.453 115.277L579.17 131.299L579.879 106.593L580.589 85.2804L581.305 102.679L582.014 121.812L582.724 110.339L583.44 120.947L584.15 102.213L584.859 129.35L585.569 113.522L586.278 127.061L586.988 103.048L587.698 126.624L588.407 77.7339L589.117 122.236L589.826 105.199L590.536 106.261L591.245 106.685L591.955 113.094L592.664 81.5093L593.374 134.045L594.083 106.278L594.8 132.764L595.509 93.587L596.219 103.456L596.928 127.477L597.638 129.531L598.347 106.681L599.064 95.8044L599.773 123.051L600.49 103.006L601.199 123.618L601.909 130.732L602.625 91.5209L603.335 117.335L604.044 121.337L604.754 88.3586L605.47 76.5413L606.18 97.312L606.889 103.011L607.599 123.794L608.308 134.927L609.018 81.3077L609.734 117.839L610.444 82.2568L611.153 110.2L611.87 99.7267L612.579 131.492L613.295 78.3932L614.005 123.559L614.715 107.088L615.431 90.8321L616.14 133.894L616.85 83.1891L617.566 119.385L618.276 127.149L618.985 115.353L619.702 106.832L620.411 124.827L621.121 74.4793L621.837 78.1077L622.547 97.1188L623.263 103.855L623.973 90.1602L624.689 107.903L625.399 118.759L626.108 95.1366L626.825 79.7917L627.534 134.587L628.244 124.34L628.96 90.5634L629.676 82.3954L630.379 99.9325L631.089 124.919L631.798 125.961L632.508 116.499L633.224 93.6248L633.934 89.2951L634.643 104.816L635.36 107.202L636.069 102.288L636.786 115.336L637.495 90.3156L638.205 115.025L638.914 91.5083L639.63 95.7624L640.34 111.557L641.05 135.07L641.766 127.057L642.482 97.5177L643.192 96.3629L643.908 117.302L644.618 88.0689L645.327 124.264L646.044 82.3198L646.76 90.9119L647.47 91.3487L648.186 112.523L648.903 89.8159L649.612 121.955L650.328 73.778L651.045 121.081L651.754 115.937L652.471 110.129L653.187 81.988L653.897 89.7865L654.613 124.353L655.323 75.441L656.039 84.8899L656.756 110.33L657.472 121.53L658.188 80.4846L658.905 121.06L659.621 93.5786L660.331 132.945L661.047 131.941L661.77 87.9891L662.487 83.336L663.21 108.18" stroke="white" stroke-width="2.2734" stroke-linecap="round" stroke-linejoin="round"/>
<path d="M1173.01 179H646.19C604.664 179 571 212.664 571 254.19C571 295.716 604.664 329.38 646.19 329.38H1173.01C1214.53 329.38 1248.2 295.716 1248.2 254.19C1248.2 212.664 1214.53 179 1173.01 179Z" fill="url(#paint1_linear_2116_2902)"/>
<path d="M624.376 225.821L625.092 238.514L625.815 247.553L626.537 240.499L627.253 277.397L627.976 285.05L628.699 250.304L629.414 278.838L630.137 230.261L630.86 269.551L631.576 261.722L632.299 228.375L633.021 257.692L633.737 236.251L634.46 264.276L635.183 231.549L635.906 229.91L636.621 267.651L637.344 226.077L638.067 263.852L638.783 273.846L639.505 233.055L640.228 277.974L640.944 260.717L641.667 230.706L642.39 248.37L643.112 252.986L643.828 266.287L644.551 246.783L645.274 241.525L645.99 244.524L646.712 234.458L647.435 258.18L648.158 240.914L648.874 241.393L649.596 270.299L650.319 229.346L651.042 281.837L651.758 245.748L652.481 253.872L653.203 282.919L653.926 234.129L654.649 246.197L655.365 260.319L656.088 265.273L656.81 260.828L657.533 263.121L658.256 280.259L658.972 263.348L659.694 271.069L660.417 276.579L661.14 278.838L661.863 240.323L662.586 266.06L663.301 253.782L664.024 223.853L664.747 243.249L665.47 254.21L666.193 274.248L666.915 245.299L667.638 226.201L668.354 257.585L669.077 281.315L669.799 243.758L670.522 253.756L671.245 274.701L671.968 271.583L672.691 236.469L673.406 253.491L674.129 283.784L674.852 263.245L675.575 257.833L676.298 270.068L677.013 276.729L677.736 229.102L678.459 227.078L679.182 264.447L679.905 282.624L680.62 273.901L681.343 226.971L682.066 222.959L682.789 246.004L683.504 240.529L684.227 229.414L684.95 245.748L685.673 281.876L686.389 276.263L687.111 275.159L687.834 252.734L688.557 233.966L689.273 229.453L689.996 268.605L690.718 228.255L691.441 247.305L692.157 284.015L692.88 269.709L693.602 267.052L694.325 280.267L695.041 263.921L695.764 256.263L696.487 278.932L697.202 267.219L697.925 265.495L698.648 238.573L699.371 241.812L700.087 233.615L700.809 237.431L701.532 263.035L702.248 234.655L702.971 259.891L703.693 227.54L704.409 247.865L705.132 263.959L705.855 284.417L706.578 230.479L707.293 251.425L708.016 241.696L708.739 267.596L709.455 228.914L710.178 240.263L710.9 253.525L711.623 269.32L712.339 238.496L713.062 270.128L713.784 223.575L714.5 273.546L715.223 260.794L715.939 272.387L716.662 241.089L717.377 250.817L718.1 267.403L718.816 233.782L719.532 279.737L720.254 229.992L720.97 244.546L721.693 274.984L722.409 261.931L723.125 244.169L723.847 233.645L724.563 226.809L725.286 262.907L726.002 234.954L726.725 272.04L727.44 274.654L728.163 242.351L728.879 280.742L729.602 231.87L730.324 267.549L731.04 224.738L731.763 231.814L732.479 274.902L733.202 263.557L733.917 253.675L734.64 244.456L735.363 231.566L736.079 283.531L736.801 227.801L737.524 232.956L738.24 249.162L738.963 280.31L739.686 257.752L740.408 232.353L741.124 266.488L741.847 235.442L742.57 274.958L743.293 254.034L744.008 284.344L744.731 264.066L745.454 282.744L746.177 250.261L746.899 240.832L747.622 264.515L748.338 230.882L749.061 271.677L749.784 271.835L750.506 244.935L751.229 278.149L751.952 244.811L752.675 228.191L753.398 237.615L754.113 236.413L754.836 267.232L755.559 231.228L756.282 244.991L757.005 274.92L757.727 284.083L758.443 262.064L759.166 254.462L759.889 238.963L760.611 231.429L761.327 253.38L762.05 265.298L762.773 224.862L763.489 261.102L764.211 243.686L764.934 239.652L765.657 266.047L766.373 255.061L767.096 247.861L767.818 233.855L768.534 270.261L769.257 246.561L769.973 280.122L770.695 246.513L771.418 252.956L772.134 267.664L772.857 245.85L773.573 227.318L774.295 254.732L775.018 239.245L775.734 263.544L776.457 283.775L777.172 238.081L777.895 237.731L778.611 257.144L779.334 278.107L780.05 227.536L780.772 252.828L781.488 256.267L782.211 228.315L782.927 237.483L783.65 271.211L784.365 244.464L785.088 267.608L785.804 251.673L786.527 238.347L787.242 242.124L787.965 261.983L788.681 236.854L789.397 232.871L790.12 277.717L790.835 280.84L791.558 266.749L792.274 280.532L792.997 245.525L793.712 268.062L794.428 238.188L795.151 267.219L795.867 242.36L796.59 233.705L797.305 256.905L798.028 254.317L798.744 254.92L799.46 252.434L800.182 236.079L800.898 279.031L801.614 228.332L802.337 274.586L803.053 223.22L803.775 255.844L804.491 263.668L805.207 225.059L805.93 248.772L806.645 250.898L807.368 222.77L808.084 270.778L808.8 273.392L809.523 243.339L810.238 240.404L810.954 230L811.677 278.791L812.393 271.36L813.116 232.978L813.831 257.046L814.547 265.593L815.27 264.704L815.986 279.424L816.708 273.837L817.424 265.756L818.14 273.559L818.863 276.378L819.579 281.867L820.301 258.017L821.017 270.513L821.733 242.526L822.456 277.482L823.171 281.739L823.894 235.455L824.61 237.542L825.333 277.127L826.049 262.201L826.764 263.36L827.487 269.213L828.203 239.241L828.926 280.644L829.641 278.342L830.364 280.567L831.08 264.229L831.803 238.911L832.519 282.971L833.241 277.739L833.957 233.585L834.68 277.927L835.396 225.611L836.118 252.349L836.834 270.689L837.557 273.876L838.273 227.001L838.996 271.916L839.711 245.679L840.434 272.096L841.157 248.841L841.873 267.095L842.596 270.274L843.311 245.085L844.034 258.539L844.757 264.597L845.473 279.634L846.195 283.604L846.911 223.168L847.634 281.709L848.357 271.728L849.08 233.239L849.795 235.814L850.518 255.899L851.241 239.981L851.957 260.712L852.68 232.58L853.402 226.544L854.125 243.237L854.841 235.977L855.564 229.192L856.286 266.235L857.009 274.62L857.732 227.887L858.455 222.544L859.171 253.555L859.893 248.113L860.616 249.773L861.339 248.126L862.062 236.319L862.785 265.153L863.507 238.608L864.23 239.314L864.953 225.62L865.676 228.43L866.399 281.418L867.121 241.919L867.844 232.255L868.567 279.352L869.29 257.807L870.012 254.689L870.735 261.927L871.458 250.231L872.181 226.522L872.904 249.038L873.626 267.343L874.342 233.56L875.065 224.174L875.788 264.49L876.511 274.222L877.233 271.527L877.956 240.862L878.679 257.076L879.395 241.2L880.117 266.98L880.84 229.863L881.563 222.839L882.286 246.24L883.002 246.689L883.724 227.742L884.447 273.871L885.17 246.556L885.886 263.253L886.609 254.261L887.331 250.158L888.054 254.98L888.77 254.295L889.493 256.255L890.215 234.385L890.931 242.419L891.654 271.664L892.377 265.435L893.093 238.873L893.815 233.799L894.538 272.956L895.254 283.347L895.977 243.917L896.7 282.633L897.415 263.412L898.138 251.194L898.861 233.56L899.577 228.383L900.299 230.954L901.022 243.527L901.738 281.598L902.461 235.985L903.177 224.272L903.899 242.287L904.622 271.288L905.338 269.38L906.061 267.074L906.784 255.917L907.499 240.221L908.222 249.448L908.945 270.697L909.661 265.26L910.383 245.478L911.099 237.2L911.822 263.929L912.545 260.276L913.261 239.887L913.983 264.879L914.706 226.184L915.422 224.832L916.145 231.262L916.868 282.261L917.583 280.9L918.306 270.958L919.029 276.721L919.745 278.894L920.467 284.973L921.19 279.168L921.913 271.099L922.629 236.062L923.352 259.553L924.074 247.621L924.797 270.539L925.513 281.991L926.236 259.852L926.959 268.562L927.681 246.436L928.404 266.124L929.12 253.209L929.843 270.98L930.565 261.144L931.288 252.43L932.011 230.21L932.734 262.787L933.457 273.482L934.172 271.403L934.895 241.868L935.618 272.691L936.341 252.614L937.064 267.476L937.786 274.847L938.509 224.473L939.232 246.325L939.955 271.253L940.678 283.527L941.4 258.034L942.123 268.785L942.853 231.301L943.576 228.255L944.298 227.908L945.021 279.621L945.744 223.292L946.467 250.916L947.19 270.488L947.912 244.477L948.635 283.497L949.358 273.906L950.081 231.908L950.804 236.092L951.526 271.531L952.249 280.07L952.972 223.284L953.695 253.08L954.411 260.995L955.133 246.83L955.856 283.005L956.579 278.727L957.302 235.703L958.024 241.072L958.747 223.806L959.47 256.96L960.186 278.671L960.909 273.829L961.631 272.657L962.354 257.457L963.077 281.799L963.793 233.577L964.516 264.357L965.238 256.819L965.961 238.236L966.684 248.161L967.4 249.932L968.122 245.722L968.845 270.603L969.568 229.65L970.291 280.575L971.007 276.798L971.729 267.985L972.452 266.359L973.175 225.705L973.898 224.409L974.614 224.845L975.336 240.747L976.059 264.618L976.782 247.861L977.505 278.663L978.228 275.014L978.943 281.901L979.666 227.275L980.389 225.303L981.112 257.807L981.834 245.376L982.557 227.549L983.28 262.394L984.003 241.641L984.726 234.911L985.441 259.579L986.164 236.511L986.887 277.405L987.61 260.828L988.333 267.762L989.055 270.95L989.778 223.853L990.501 229.851L991.224 240.105L991.954 237.538L992.676 226.244L993.399 260.028L994.122 243.361L994.845 260.995L995.567 274.286L996.29 263.125L997.013 279.638L997.743 282.376L998.466 284.532L999.188 247.57L999.911 267.523L1000.63 244.434L1001.36 243.788L1002.08 260.434L1002.8 231.87L1003.53 239.579L1004.25 231.609L1004.97 232.512L1005.69 254.389L1006.42 243.198L1007.14 233.932L1007.86 272.083L1008.58 269.106L1009.31 275.086L1010.02 254.329L1010.75 232.024L1011.47 256.19L1012.19 236.169L1012.91 259.395L1013.64 284.977L1014.36 229.804L1015.08 263.309L1015.81 277.037L1016.53 267.249L1017.25 260.575L1017.97 223.506L1018.69 246.766L1019.41 277.178L1020.14 241.217L1020.86 254.291L1021.58 253.671L1022.3 226.142L1023.03 261.76L1023.75 283.086L1024.47 244.507L1025.19 264.55L1025.92 239.018L1026.64 244.661L1027.36 233.051L1028.09 281.756L1028.81 229.962L1029.54 243.677L1030.26 280.943L1030.98 277.071L1031.71 261.401L1032.43 253.645L1033.15 259.852L1033.88 238.804L1034.61 229.478L1035.33 226.415L1036.05 245.684L1036.77 264.721L1037.5 265.966L1038.22 266.12L1038.94 236.507L1039.66 249.179L1040.39 247.322L1041.11 239.733L1041.83 232.618L1042.56 245.846L1043.28 283.001L1044 230.411L1044.72 246.608L1045.45 268.032L1046.17 233.059L1046.89 267.116L1047.62 280.52L1048.34 260.006L1049.06 279.326L1049.78 236.002L1050.51 275.993L1051.24 253.025L1051.96 224.717L1052.68 284.472L1053.4 262.329L1054.13 250.364L1054.85 233.329L1055.57 245.384L1056.3 270.188L1057.02 230.552L1057.74 247.818L1058.46 269.658L1059.19 235.934L1059.92 251.198L1060.64 233.487L1061.36 256.105L1062.09 277.893L1062.82 229.029L1063.54 237.876L1064.26 266.753L1064.98 255.228L1065.71 254.68L1066.43 224.867L1067.15 267.313L1067.87 242.484L1068.6 266.894L1069.32 236.721L1070.04 254.817L1070.77 267.159L1071.48 257.547L1072.2 279.741L1072.93 238.407L1073.64 254.997L1074.37 270.235L1075.09 236.751L1075.81 259.117L1076.53 282.633L1077.26 237.406L1077.98 265.846L1078.7 227.673L1079.43 267.412L1080.15 232.914L1080.87 236.443L1081.6 266.749L1082.32 257.94L1083.05 246.351L1083.77 226.535L1084.49 272.729L1085.21 267.403L1085.94 243.69L1086.66 256.725L1087.38 259.686L1088.11 249.987L1088.83 246.454L1089.55 283.702L1090.27 263.164L1091 226.308L1091.72 255.215L1092.44 255.668L1093.16 239.938L1093.88 282.094L1094.6 250.308L1095.33 251.318L1096.04 243.425L1096.77 258.235L1097.49 283.262L1098.21 254.364L1098.93 246.907L1099.65 233.247L1100.37 266.051L1101.09 273.696L1101.82 269.807L1102.53 239.468L1103.26 222.655L1103.98 235.981L1104.7 241.756L1105.42 251.485L1106.15 234.518L1106.87 235.622L1107.59 259.626L1108.32 264.853L1109.05 281.174L1109.77 256.006L1110.49 234.295L1111.22 252.019L1111.94 271.51L1112.67 259.822L1113.4 270.629L1114.12 251.544L1114.84 279.189L1115.56 263.065L1116.29 276.858L1117.01 252.396L1117.73 276.413L1118.46 226.608L1119.18 271.942L1119.9 254.586L1120.62 255.668L1121.35 256.101L1122.07 262.629L1122.79 230.454L1123.52 283.972L1124.24 255.686L1124.97 282.667L1125.69 242.757L1126.41 252.811L1127.14 277.281L1127.86 279.373L1128.58 256.096L1129.31 245.016L1130.03 272.772L1130.76 252.353L1131.49 273.35L1132.21 280.597L1132.94 240.653L1133.66 266.95L1134.39 271.027L1135.11 237.431L1135.84 225.393L1136.56 246.552L1137.28 252.357L1138.01 273.529L1138.73 284.87L1139.45 230.248L1140.18 267.463L1140.9 231.215L1141.63 259.681L1142.36 249.012L1143.08 281.371L1143.81 227.279L1144.53 273.29L1145.26 256.511L1145.99 239.951L1146.71 283.818L1147.43 232.165L1148.16 269.037L1148.88 276.947L1149.61 264.93L1150.34 256.25L1151.06 274.582L1151.78 223.292L1152.51 226.989L1153.23 246.355L1153.96 253.217L1154.69 239.267L1155.42 257.341L1156.14 268.4L1156.86 244.336L1157.59 228.704L1158.31 284.524L1159.04 274.085L1159.77 239.677L1160.5 231.356L1161.21 249.221L1161.94 274.676L1162.66 275.737L1163.38 266.098L1164.11 242.796L1164.83 238.385L1165.56 254.197L1166.29 256.627L1167.01 251.621L1167.74 264.913L1168.46 239.425L1169.18 264.597L1169.91 240.64L1170.64 244.973L1171.36 261.063L1172.08 285.016L1172.81 276.853L1173.54 246.762L1174.27 245.585L1174.99 266.915L1175.72 237.136L1176.44 274.008L1177.17 231.279L1177.9 240.032L1178.62 240.477L1179.35 262.047L1180.08 238.916L1180.81 271.655L1181.54 222.578L1182.26 270.766L1182.99 265.525L1183.72 259.609L1184.45 230.941L1185.17 238.886L1185.9 274.098L1186.62 224.272L1187.35 233.898L1188.08 259.814L1188.81 271.223L1189.54 229.41L1190.27 270.744L1191 242.749L1191.72 282.851L1192.45 281.829L1193.19 237.055L1193.92 232.315L1194.66 257.624" stroke="white" stroke-width="2.2734" stroke-linecap="round" stroke-linejoin="round"/>
<path d="M1690.95 30H1173.81C1133.05 30 1100 63.0458 1100 103.81C1100 144.574 1133.05 177.62 1173.81 177.62H1690.95C1731.72 177.62 1764.76 144.574 1764.76 103.81C1764.76 63.0458 1731.72 30 1690.95 30Z" fill="url(#paint2_linear_2116_2902)"/>
<path d="M1152.4 75.9612L1153.1 88.4211L1153.81 97.2947L1154.52 90.3697L1155.22 126.59L1155.93 134.103L1156.64 99.9949L1157.34 128.006L1158.05 80.3203L1158.76 118.888L1159.46 111.203L1160.17 78.4683L1160.88 107.247L1161.59 86.1996L1162.3 113.71L1163 81.5843L1163.71 79.9759L1164.42 117.024L1165.13 76.2132L1165.84 113.295L1166.54 123.105L1167.25 83.0626L1167.96 127.157L1168.66 110.217L1169.37 80.757L1170.08 98.0968L1170.79 102.628L1171.49 115.684L1172.2 96.5387L1172.91 91.3776L1173.61 94.3214L1174.32 84.44L1175.03 107.726L1175.74 90.777L1176.44 91.2474L1177.15 119.623L1177.86 79.4216L1178.57 130.949L1179.28 95.5225L1179.99 103.497L1180.69 132.012L1181.4 84.1166L1182.11 95.9634L1182.82 109.826L1183.53 114.689L1184.24 110.326L1184.94 112.577L1185.65 129.4L1186.36 112.799L1187.07 120.379L1187.78 125.788L1188.49 128.006L1189.2 90.1975L1189.9 115.462L1190.61 103.409L1191.32 74.0294L1192.03 93.07L1192.74 103.829L1193.45 123.5L1194.16 95.0815L1194.86 76.335L1195.57 107.142L1196.28 130.437L1196.99 93.5697L1197.7 103.384L1198.41 123.945L1199.11 120.883L1199.82 86.4138L1200.53 103.124L1201.24 132.86L1201.95 112.698L1202.66 107.386L1203.37 119.397L1204.07 125.935L1204.78 79.1822L1205.49 77.1959L1206.2 113.878L1206.91 131.722L1207.61 123.159L1208.32 77.0909L1209.03 73.1517L1209.74 95.7744L1210.44 90.3991L1211.15 79.4888L1211.86 95.5225L1212.57 130.987L1213.27 125.477L1213.98 124.394L1214.69 102.38L1215.4 83.957L1216.1 79.5266L1216.81 117.96L1217.52 78.3507L1218.23 97.0511L1218.93 133.087L1219.64 119.044L1220.35 116.436L1221.06 129.408L1221.76 113.362L1222.47 105.845L1223.18 128.098L1223.89 116.6L1224.6 114.907L1225.31 88.4799L1226.01 91.6589L1226.72 83.6127L1227.43 87.3586L1228.14 112.493L1228.84 84.6332L1229.55 109.406L1230.26 77.6494L1230.96 97.6012L1231.67 113.4L1232.38 133.482L1233.09 80.5345L1233.79 101.095L1234.5 91.5455L1235.21 116.969L1235.91 78.9974L1236.62 90.1387L1237.33 103.157L1238.04 118.662L1238.74 88.4043L1239.45 119.455L1240.16 73.7565L1240.87 122.811L1241.58 110.292L1242.28 121.673L1242.99 90.9492L1243.69 100.499L1244.4 116.78L1245.1 83.7765L1245.81 128.887L1246.52 80.0557L1247.22 94.3424L1247.93 124.222L1248.63 111.409L1249.33 93.9729L1250.04 83.6421L1250.74 76.9313L1251.45 112.367L1252.16 84.9271L1252.87 121.333L1253.57 123.898L1254.28 92.1881L1254.98 129.874L1255.69 81.8993L1256.4 116.923L1257.1 74.8987L1257.81 81.8447L1258.51 124.142L1259.22 113.005L1259.93 103.304L1260.64 94.2542L1261.35 81.6011L1262.05 132.612L1262.76 77.9056L1263.47 82.966L1264.17 98.8737L1264.88 129.45L1265.59 107.306L1266.3 82.3738L1267 115.882L1267.71 85.4059L1268.42 124.197L1269.13 103.657L1269.83 133.41L1270.54 113.505L1271.25 131.84L1271.96 99.9529L1272.67 90.6972L1273.38 113.946L1274.08 80.9292L1274.79 120.976L1275.5 121.131L1276.21 94.7246L1276.92 127.329L1277.63 94.6028L1278.34 78.2877L1279.05 87.5392L1279.75 86.3592L1280.46 116.612L1281.17 81.2694L1281.88 94.7792L1282.59 124.159L1283.3 133.154L1284 111.539L1284.71 104.077L1285.42 88.8621L1286.13 81.4667L1286.83 103.014L1287.54 114.714L1288.25 75.0205L1288.96 110.594L1289.67 93.4983L1290.37 89.5382L1291.08 115.449L1291.79 104.665L1292.5 97.597L1293.21 83.8479L1293.91 119.586L1294.62 96.3204L1295.32 129.265L1296.03 96.2742L1296.74 102.599L1297.44 117.037L1298.15 95.6233L1298.85 77.431L1299.56 104.341L1300.27 89.1392L1300.98 112.992L1301.69 132.852L1302.39 87.997L1303.1 87.6526L1303.8 106.71L1304.51 127.287L1305.21 77.6452L1305.92 102.473L1306.62 105.849L1307.33 78.4095L1308.04 87.409L1308.75 120.518L1309.45 94.2626L1310.16 116.982L1310.86 101.339L1311.57 88.2573L1312.27 91.9655L1312.98 111.46L1313.69 86.7917L1314.39 82.882L1315.1 126.905L1315.8 129.971L1316.51 116.138L1317.21 129.669L1317.92 95.3041L1318.62 117.427L1319.33 88.102L1320.04 116.6L1320.74 92.1965L1321.45 83.7009L1322.15 106.475L1322.86 103.934L1323.56 104.526L1324.27 102.086L1324.98 86.0316L1325.68 128.195L1326.38 78.4263L1327.09 123.831L1327.79 73.4079L1328.5 105.433L1329.21 113.114L1329.91 75.2137L1330.62 98.4915L1331.32 100.579L1332.03 72.967L1332.73 120.094L1333.44 122.66L1334.14 93.1582L1334.85 90.2773L1335.55 80.0641L1336.26 127.959L1336.96 120.665L1337.67 82.987L1338.37 106.613L1339.08 115.004L1339.79 114.13L1340.49 128.581L1341.2 123.096L1341.9 115.164L1342.6 122.823L1343.31 125.591L1344.02 130.979L1344.73 107.567L1345.43 119.833L1346.13 92.3602L1346.84 126.674L1347.54 130.853L1348.25 85.4185L1348.95 87.4678L1349.66 126.326L1350.37 111.674L1351.07 112.812L1351.78 118.557L1352.48 89.135L1353.19 129.778L1353.89 127.518L1354.6 129.702L1355.31 113.664L1356.02 88.8117L1356.72 132.062L1357.43 126.926L1358.13 83.5833L1358.84 127.111L1359.54 75.7554L1360.25 102.002L1360.95 120.006L1361.66 123.134L1362.37 77.1203L1363.08 121.211L1363.78 95.4553L1364.49 121.387L1365.2 98.5587L1365.9 116.478L1366.61 119.598L1367.31 94.8715L1368.02 108.079L1368.73 114.025L1369.43 128.787L1370.14 132.684L1370.85 73.3575L1371.56 130.823L1372.27 121.026L1372.98 83.2431L1373.68 85.7712L1374.39 105.488L1375.1 89.8615L1375.8 110.212L1376.51 82.5964L1377.22 76.6709L1377.93 93.0574L1378.63 85.9308L1379.34 79.2704L1380.05 115.634L1380.76 123.865L1381.47 77.9896L1382.18 72.7444L1382.88 103.187L1383.59 97.8448L1384.3 99.4742L1385.01 97.8574L1385.72 86.2668L1386.43 114.571L1387.14 88.5135L1387.85 89.2064L1388.56 75.7638L1389.27 78.5229L1389.98 130.538L1390.69 91.7639L1391.4 82.2772L1392.11 128.51L1392.81 107.361L1393.52 104.299L1394.23 111.405L1394.94 99.9235L1395.65 76.6499L1396.36 98.7519L1397.07 116.722L1397.77 83.5581L1398.48 74.3444L1399.19 113.92L1399.9 123.474L1400.61 120.829L1401.32 90.7266L1402.03 106.643L1402.73 91.0584L1403.44 116.365L1404.15 79.9297L1404.86 73.0342L1405.57 96.0054L1406.27 96.4464L1406.98 77.8468L1407.69 123.13L1408.4 96.3162L1409.11 112.707L1409.82 103.879L1410.53 99.8522L1411.23 104.585L1411.94 103.913L1412.65 105.836L1413.36 84.3686L1414.06 92.2553L1414.77 120.963L1415.48 114.849L1416.18 88.7739L1416.89 83.7933L1417.6 122.231L1418.3 132.432L1419.01 93.7251L1419.72 131.731L1420.42 112.862L1421.13 100.868L1421.84 83.5581L1422.55 78.4767L1423.26 81.0006L1423.96 93.3429L1424.67 130.714L1425.38 85.9392L1426.08 74.441L1426.79 92.1251L1427.5 120.593L1428.2 118.721L1428.91 116.457L1429.62 105.505L1430.32 90.0967L1431.03 99.155L1431.74 120.014L1432.44 114.676L1433.15 95.2579L1433.86 87.1319L1434.57 113.37L1435.28 109.784L1435.98 89.7692L1436.69 114.303L1437.4 76.3182L1438.1 74.9911L1438.81 81.303L1439.52 131.365L1440.22 130.03L1440.93 120.27L1441.64 125.927L1442.34 128.06L1443.05 134.028L1443.76 128.329L1444.47 120.409L1445.17 86.0148L1445.88 109.074L1446.59 97.3618L1447.3 119.859L1448.01 131.101L1448.72 109.368L1449.42 117.918L1450.13 96.1986L1450.84 115.525L1451.55 102.846L1452.26 120.291L1452.97 110.636L1453.68 102.082L1454.38 80.2699L1455.09 112.249L1455.8 122.748L1456.51 120.707L1457.22 91.7135L1457.93 121.971L1458.63 102.263L1459.34 116.852L1460.05 124.087L1460.76 74.6384L1461.47 96.0894L1462.18 120.56L1462.89 132.608L1463.6 107.583L1464.31 118.137L1465.03 81.3408L1465.74 78.3507L1466.45 78.0106L1467.16 128.774L1467.87 73.4793L1468.58 100.595L1469.28 119.808L1469.99 94.2752L1470.7 132.579L1471.41 123.164L1472.12 81.9371L1472.83 86.0442L1473.54 120.833L1474.25 129.215L1474.96 73.4709L1475.67 102.72L1476.37 110.489L1477.08 96.5849L1477.79 132.096L1478.5 127.896L1479.21 85.662L1479.92 90.9324L1480.63 73.9832L1481.34 106.529L1482.04 127.842L1482.75 123.088L1483.46 121.937L1484.17 107.016L1484.88 130.912L1485.58 83.5749L1486.29 113.79L1487 106.391L1487.71 88.1481L1488.42 97.891L1489.12 99.6296L1489.83 95.4973L1490.54 119.922L1491.25 79.7198L1491.96 129.711L1492.66 126.002L1493.37 117.351L1494.08 115.756L1494.79 75.8478L1495.5 74.5754L1496.21 75.0037L1496.91 90.6133L1497.62 114.046L1498.33 97.597L1499.04 127.833L1499.75 124.251L1500.46 131.012L1501.16 77.389L1501.87 75.4531L1502.58 107.361L1503.29 95.1571L1504 77.6578L1504.71 111.863L1505.42 91.4909L1506.13 84.8851L1506.83 109.099L1507.54 86.4558L1508.25 126.599L1508.96 110.326L1509.67 117.133L1510.38 120.262L1511.09 74.0294L1511.8 79.9171L1512.51 89.9833L1513.23 87.4636L1513.94 76.377L1514.65 109.54L1515.36 93.1791L1516.06 110.489L1516.77 123.537L1517.48 112.581L1518.19 128.791L1518.91 131.479L1519.62 133.595L1520.33 97.3115L1521.04 116.898L1521.75 94.2332L1522.46 93.5991L1523.17 109.939L1523.88 81.8993L1524.59 89.4668L1525.3 81.6431L1526.01 82.5292L1526.71 104.005L1527.42 93.0196L1528.13 83.9235L1528.84 121.375L1529.55 118.452L1530.26 124.323L1530.96 103.947L1531.67 82.0505L1532.38 105.773L1533.09 86.1198L1533.8 108.919L1534.51 134.032L1535.22 79.8709L1535.93 112.761L1536.64 126.238L1537.35 116.629L1538.06 110.078L1538.77 73.6893L1539.47 96.5219L1540.18 126.376L1540.89 91.0752L1541.6 103.909L1542.31 103.3L1543.02 76.2762L1543.73 111.241L1544.44 132.176L1545.15 94.3046L1545.86 113.979L1546.57 88.9167L1547.28 94.4558L1547.99 83.0584L1548.7 130.87L1549.41 80.0263L1550.12 93.4899L1550.83 130.072L1551.54 126.271L1552.25 110.888L1552.96 103.275L1553.67 109.368L1554.39 88.7067L1555.1 79.5518L1555.81 76.5449L1556.51 95.4595L1557.22 114.147L1557.93 115.369L1558.64 115.52L1559.35 86.4516L1560.06 98.8905L1560.77 97.0679L1561.48 89.618L1562.19 82.6342L1562.9 95.6191L1563.61 132.092L1564.32 80.4673L1565.03 96.3666L1565.74 117.398L1566.45 83.0668L1567.16 116.499L1567.87 129.656L1568.58 109.519L1569.29 128.484L1570 85.956L1570.71 125.213L1571.42 102.666L1572.13 74.8777L1572.84 133.536L1573.55 111.8L1574.26 100.054L1574.97 83.3313L1575.68 95.1655L1576.39 119.514L1577.1 80.6058L1577.81 97.555L1578.52 118.993L1579.23 85.8888L1579.94 100.873L1580.65 83.4867L1581.36 105.689L1582.07 127.078L1582.79 79.1108L1583.5 87.7954L1584.21 116.142L1584.92 104.829L1585.63 104.291L1586.34 75.0247L1587.04 116.692L1587.75 92.3183L1588.46 116.281L1589.17 86.6615L1589.88 104.425L1590.59 116.541L1591.29 107.105L1592 128.892L1592.71 88.3161L1593.42 104.602L1594.13 119.56L1594.84 86.6909L1595.55 108.646L1596.25 131.731L1596.96 87.3334L1597.67 115.252L1598.38 77.7796L1599.09 116.789L1599.8 82.924L1600.51 86.3886L1601.23 116.138L1601.94 107.491L1602.65 96.1146L1603.36 76.6625L1604.07 122.009L1604.78 116.78L1605.49 93.5025L1606.19 106.298L1606.9 109.204L1607.61 99.6842L1608.32 96.2154L1609.03 132.78L1609.74 112.619L1610.45 76.4399L1611.16 104.816L1611.86 105.261L1612.57 89.8195L1613.28 131.201L1613.99 99.9991L1614.7 100.99L1615.4 93.2421L1616.11 107.781L1616.82 132.348L1617.53 103.98L1618.24 96.6605L1618.95 83.2515L1619.66 115.453L1620.36 122.958L1621.07 119.14L1621.78 89.3576L1622.49 72.8536L1623.2 85.935L1623.91 91.6043L1624.61 101.154L1625.32 84.4988L1626.03 85.5823L1626.74 109.146L1627.45 114.277L1628.17 130.299L1628.88 105.593L1629.59 84.2804L1630.3 101.679L1631.01 120.812L1631.72 109.339L1632.44 119.947L1633.15 101.213L1633.86 128.35L1634.57 112.522L1635.28 126.061L1635.99 102.048L1636.7 125.624L1637.41 76.7339L1638.12 121.236L1638.83 104.199L1639.54 105.261L1640.25 105.685L1640.95 112.094L1641.66 80.5093L1642.37 133.045L1643.08 105.278L1643.8 131.764L1644.51 92.587L1645.22 102.456L1645.93 126.477L1646.64 128.531L1647.35 105.681L1648.06 94.8044L1648.77 122.051L1649.49 102.006L1650.2 122.618L1650.91 129.732L1651.63 90.5209L1652.33 116.335L1653.04 120.337L1653.75 87.3586L1654.47 75.5413L1655.18 96.312L1655.89 102.011L1656.6 122.794L1657.31 133.927L1658.02 80.3077L1658.73 116.839L1659.44 81.2568L1660.15 109.2L1660.87 98.7267L1661.58 130.492L1662.3 77.3932L1663 122.559L1663.71 106.088L1664.43 89.8321L1665.14 132.894L1665.85 82.1891L1666.57 118.385L1667.28 126.149L1667.99 114.353L1668.7 105.832L1669.41 123.827L1670.12 73.4793L1670.84 77.1077L1671.55 96.1188L1672.26 102.855L1672.97 89.1602L1673.69 106.903L1674.4 117.759L1675.11 94.1366L1675.82 78.7917L1676.53 133.587L1677.24 123.34L1677.96 89.5634L1678.68 81.3954L1679.38 98.9325L1680.09 123.919L1680.8 124.961L1681.51 115.499L1682.22 92.6248L1682.93 88.2951L1683.64 103.816L1684.36 106.202L1685.07 101.288L1685.79 114.336L1686.5 89.3156L1687.2 114.025L1687.91 90.5083L1688.63 94.7624L1689.34 110.557L1690.05 134.07L1690.77 126.057L1691.48 96.5177L1692.19 95.3629L1692.91 116.302L1693.62 87.0689L1694.33 123.264L1695.04 81.3198L1695.76 89.9119L1696.47 90.3487L1697.19 111.523L1697.9 88.8159L1698.61 120.955L1699.33 72.778L1700.04 120.081L1700.75 114.937L1701.47 109.129L1702.19 80.988L1702.9 88.7865L1703.61 123.353L1704.32 74.441L1705.04 83.8899L1705.76 109.33L1706.47 120.53L1707.19 79.4846L1707.9 120.06L1708.62 92.5786L1709.33 131.945L1710.05 130.941L1710.77 86.9891L1711.49 82.336L1712.21 107.18" stroke="white" stroke-width="2.2734" stroke-linecap="round" stroke-linejoin="round"/>
<path d="M85.4575 179H-412C-451.212 179 -483 210.788 -483 250C-483 289.212 -451.212 321 -412 321H85.4575C124.67 321 156.458 289.212 156.458 250C156.458 210.788 124.67 179 85.4575 179Z" fill="url(#paint3_linear_2116_2902)"/>
<path d="M-432.599 223.211L-431.923 235.197L-431.24 243.733L-430.558 237.071L-429.882 271.913L-429.199 279.14L-428.517 246.33L-427.841 273.275L-427.158 227.405L-426.476 264.504L-425.8 257.112L-425.118 225.623L-424.435 253.307L-423.759 233.06L-423.077 259.524L-422.394 228.62L-421.712 227.073L-421.036 262.711L-420.353 223.454L-419.671 259.124L-418.995 268.56L-418.312 230.042L-417.63 272.459L-416.954 256.163L-416.271 227.825L-415.589 244.504L-414.906 248.863L-414.23 261.422L-413.548 243.006L-412.865 238.041L-412.19 240.873L-411.507 231.367L-410.825 253.767L-410.142 237.463L-409.466 237.916L-408.784 265.211L-408.101 226.54L-407.419 276.106L-406.743 242.028L-406.06 249.699L-405.378 277.128L-404.695 231.056L-404.013 242.452L-403.337 255.787L-402.654 260.465L-401.972 256.268L-401.289 258.433L-400.607 274.616L-399.931 258.647L-399.248 265.939L-398.566 271.142L-397.883 273.275L-397.201 236.906L-396.518 261.208L-395.842 249.614L-395.16 221.353L-394.477 239.669L-393.795 250.018L-393.112 268.94L-392.43 241.604L-391.747 223.571L-391.071 253.206L-390.389 275.613L-389.706 240.15L-389.024 249.59L-388.341 269.368L-387.659 266.423L-386.976 233.266L-386.3 249.34L-385.618 277.944L-384.935 258.55L-384.253 253.44L-383.57 264.993L-382.895 271.283L-382.212 226.31L-381.53 224.399L-380.847 259.685L-380.165 276.85L-379.489 268.613L-378.806 224.298L-378.124 220.509L-377.441 242.27L-376.765 237.1L-376.083 226.605L-375.4 242.028L-374.718 276.143L-374.042 270.843L-373.359 269.8L-372.677 248.625L-371.994 230.903L-371.318 226.641L-370.636 263.612L-369.953 225.51L-369.271 243.498L-368.595 278.162L-367.912 264.654L-367.23 262.145L-366.547 274.624L-365.872 259.188L-365.189 251.957L-364.506 273.363L-363.831 262.303L-363.148 260.675L-362.466 235.254L-361.783 238.312L-361.107 230.572L-360.425 234.175L-359.742 258.352L-359.066 231.553L-358.384 255.383L-357.701 224.835L-357.025 244.028L-356.343 259.225L-355.66 278.542L-354.978 227.611L-354.302 247.389L-353.619 238.202L-352.937 262.658L-352.261 226.132L-351.579 236.849L-350.896 249.372L-350.214 264.286L-349.538 235.181L-348.855 265.05L-348.173 221.091L-347.497 268.277L-346.814 256.235L-346.138 267.183L-345.456 237.629L-344.78 246.815L-344.097 262.477L-343.422 230.729L-342.746 274.123L-342.063 227.15L-341.387 240.893L-340.705 269.635L-340.029 257.31L-339.353 240.537L-338.67 230.6L-337.995 224.145L-337.312 258.231L-336.636 231.836L-335.954 266.856L-335.278 269.324L-334.595 238.821L-333.919 275.072L-333.237 228.923L-332.554 262.614L-331.878 222.189L-331.196 228.871L-330.52 269.558L-329.838 258.845L-329.162 249.513L-328.479 240.808L-327.797 228.637L-327.121 277.706L-326.438 225.082L-325.756 229.95L-325.08 245.252L-324.397 274.664L-323.715 253.363L-323.032 229.38L-322.356 261.612L-321.674 232.297L-320.991 269.611L-320.309 249.853L-319.633 278.474L-318.951 259.326L-318.268 276.963L-317.585 246.29L-316.903 237.386L-316.22 259.75L-315.545 227.99L-314.862 266.512L-314.18 266.662L-313.497 241.26L-312.815 272.624L-312.132 241.143L-311.45 225.449L-310.767 234.349L-310.091 233.214L-309.409 262.315L-308.726 228.318L-308.044 241.313L-307.361 269.574L-306.679 278.227L-306.003 257.435L-305.32 250.257L-304.638 235.621L-303.955 228.507L-303.279 249.235L-302.597 260.489L-301.914 222.307L-301.238 256.526L-300.556 240.081L-299.873 236.272L-299.191 261.196L-298.515 250.822L-297.832 244.024L-297.15 230.798L-296.474 265.175L-295.791 242.796L-295.116 274.486L-294.433 242.751L-293.751 248.835L-293.075 262.723L-292.392 242.125L-291.716 224.625L-291.034 250.511L-290.351 235.888L-289.675 258.833L-288.993 277.936L-288.317 234.789L-287.634 234.458L-286.959 252.79L-286.276 272.584L-285.6 224.831L-284.918 248.714L-284.242 251.961L-283.559 225.567L-282.883 234.223L-282.201 266.072L-281.525 240.816L-280.842 262.67L-280.167 247.623L-279.484 235.039L-278.808 238.606L-278.126 257.358L-277.45 233.63L-276.774 229.869L-276.091 272.216L-275.416 275.165L-274.733 261.859L-274.057 274.874L-273.375 241.818L-272.699 263.099L-272.023 234.89L-271.34 262.303L-270.664 238.829L-269.982 230.656L-269.306 252.563L-268.624 250.119L-267.948 250.689L-267.272 248.342L-266.589 232.898L-265.913 273.456L-265.237 225.583L-264.555 269.259L-263.879 220.755L-263.197 251.562L-262.521 258.95L-261.845 222.492L-261.162 244.884L-260.486 246.892L-259.804 220.331L-259.128 265.664L-258.452 268.132L-257.77 239.754L-257.094 236.983L-256.418 227.158L-255.735 273.23L-255.059 266.213L-254.377 229.97L-253.701 252.697L-253.025 260.768L-252.343 259.928L-251.667 273.828L-250.984 268.552L-250.308 260.921L-249.632 268.29L-248.95 270.952L-248.274 276.135L-247.592 253.614L-246.916 265.413L-246.24 238.986L-245.557 271.994L-244.881 276.013L-244.199 232.309L-243.523 234.28L-242.841 271.659L-242.165 257.564L-241.489 258.659L-240.806 264.185L-240.13 235.884L-239.448 274.979L-238.772 272.806L-238.089 274.907L-237.414 259.479L-236.731 235.573L-236.055 277.177L-235.373 272.236L-234.697 230.543L-234.014 272.414L-233.338 223.013L-232.656 248.261L-231.98 265.579L-231.297 268.589L-230.622 224.326L-229.939 266.738L-229.263 241.963L-228.581 266.908L-227.898 244.949L-227.222 262.186L-226.54 265.187L-225.864 241.402L-225.181 254.106L-224.499 259.827L-223.823 274.026L-223.14 277.775L-222.465 220.707L-221.782 275.985L-221.1 266.561L-220.417 230.216L-219.741 232.648L-219.059 251.614L-218.376 236.583L-217.7 256.159L-217.018 229.594L-216.335 223.894L-215.653 239.657L-214.977 232.801L-214.294 226.395L-213.612 261.374L-212.929 269.291L-212.247 225.163L-211.564 220.117L-210.888 249.4L-210.206 244.262L-209.523 245.829L-208.841 244.274L-208.158 233.125L-207.476 260.352L-206.793 235.286L-206.111 235.952L-205.428 223.022L-204.746 225.676L-204.063 275.71L-203.381 238.413L-202.698 229.287L-202.016 273.759L-201.333 253.416L-200.651 250.471L-199.968 257.306L-199.286 246.262L-198.603 223.874L-197.921 245.134L-197.238 262.42L-196.562 230.519L-195.88 221.656L-195.197 259.726L-194.515 268.916L-193.832 266.371L-193.15 237.415L-192.467 252.725L-191.791 237.734L-191.109 262.077L-190.426 227.029L-189.744 220.396L-189.061 242.493L-188.385 242.917L-187.703 225.025L-187.02 268.585L-186.338 242.791L-185.662 258.558L-184.979 250.067L-184.297 246.193L-183.614 250.746L-182.939 250.099L-182.256 251.949L-181.573 231.299L-180.898 238.885L-180.215 266.5L-179.533 260.618L-178.857 235.536L-178.174 230.745L-177.492 267.72L-176.816 277.532L-176.133 240.299L-175.451 276.858L-174.775 258.708L-174.092 247.17L-173.41 230.519L-172.734 225.631L-172.051 228.059L-171.369 239.931L-170.693 275.88L-170.011 232.81L-169.335 221.749L-168.652 238.76L-167.97 266.145L-167.294 264.343L-166.611 262.166L-165.929 251.63L-165.253 236.809L-164.57 245.522L-163.888 265.587L-163.212 260.453L-162.529 241.774L-161.854 233.957L-161.171 259.196L-160.489 255.747L-159.813 236.494L-159.13 260.093L-158.448 223.555L-157.772 222.278L-157.089 228.35L-156.407 276.506L-155.731 275.222L-155.048 265.834L-154.366 271.275L-153.69 273.327L-153.007 279.067L-152.325 273.586L-151.642 265.967L-150.966 232.882L-150.284 255.064L-149.601 243.797L-148.919 265.438L-148.243 276.252L-147.561 255.347L-146.878 263.571L-146.196 242.678L-145.513 261.269L-144.837 249.073L-144.155 265.854L-143.472 256.567L-142.79 248.338L-142.107 227.356L-141.425 258.118L-140.742 268.217L-140.066 266.254L-139.384 238.364L-138.701 267.47L-138.019 248.512L-137.336 262.545L-136.654 269.506L-135.971 221.939L-135.289 242.573L-134.606 266.112L-133.924 277.702L-133.241 253.63L-132.559 263.781L-131.869 228.386L-131.187 225.51L-130.504 225.183L-129.822 274.014L-129.139 220.824L-128.457 246.908L-127.774 265.389L-127.092 240.828L-126.409 277.674L-125.727 268.617L-125.044 228.96L-124.362 232.911L-123.679 266.375L-122.997 274.438L-122.314 220.816L-121.632 248.952L-120.956 256.425L-120.273 243.05L-119.591 277.209L-118.908 273.169L-118.226 232.543L-117.543 237.613L-116.861 221.309L-116.178 252.616L-115.502 273.117L-114.82 268.544L-114.137 267.437L-113.455 253.084L-112.772 276.07L-112.096 230.535L-111.414 259.6L-110.731 252.483L-110.049 234.934L-109.366 244.306L-108.691 245.979L-108.008 242.004L-107.326 265.498L-106.643 226.827L-105.96 274.915L-105.285 271.348L-104.602 263.026L-103.92 261.491L-103.237 223.102L-102.555 221.878L-101.879 222.29L-101.196 237.306L-100.514 259.847L-99.8311 244.024L-99.1486 273.109L-98.4661 269.663L-97.7902 276.167L-97.1077 224.585L-96.4252 222.723L-95.7427 253.416L-95.0602 241.677L-94.3776 224.843L-93.6951 257.746L-93.0126 238.15L-92.3301 231.796L-91.6542 255.088L-90.9717 233.306L-90.2892 271.921L-89.6067 256.268L-88.9242 262.816L-88.2416 265.825L-87.5592 221.353L-86.8767 227.017L-86.1941 236.7L-85.505 234.276L-84.8225 223.611L-84.14 255.512L-83.4574 239.774L-82.7749 256.425L-82.0925 268.976L-81.4099 258.437L-80.7274 274.03L-80.0382 276.615L-79.3558 278.651L-78.6733 243.749L-77.9907 262.59L-77.3082 240.788L-76.6257 240.178L-75.9432 255.896L-75.2607 228.923L-74.5782 236.203L-73.8957 228.677L-73.2132 229.529L-72.5306 250.188L-71.8481 239.62L-71.1657 230.871L-70.4831 266.896L-69.8006 264.084L-69.1181 269.732L-68.4422 250.131L-67.7597 229.069L-67.0772 251.889L-66.3947 232.983L-65.7121 254.914L-65.0297 279.071L-64.3471 226.972L-63.6646 258.611L-62.9821 271.574L-62.2996 262.331L-61.6171 256.029L-60.9346 221.026L-60.2587 242.989L-59.5762 271.707L-58.8937 237.75L-58.2112 250.095L-57.5286 249.509L-56.8461 223.514L-56.1636 257.148L-55.4811 277.286L-54.7986 240.857L-54.116 259.782L-53.4336 235.674L-52.7511 241.002L-52.0685 230.038L-51.386 276.03L-50.7036 227.122L-50.0144 240.073L-49.3319 275.262L-48.6493 271.606L-47.9669 256.809L-47.2843 249.485L-46.6018 255.347L-45.9127 235.472L-45.2302 226.665L-44.5477 223.773L-43.8651 241.967L-43.1826 259.944L-42.5002 261.119L-41.8176 261.265L-41.1351 233.302L-40.4526 245.268L-39.7701 243.515L-39.0876 236.348L-38.4051 229.63L-37.7225 242.121L-37.0401 277.205L-36.3575 227.546L-35.675 242.84L-34.9925 263.07L-34.31 230.046L-33.6275 262.206L-32.945 274.862L-32.2624 255.492L-31.58 273.735L-30.8975 232.826L-30.2149 270.588L-29.5258 248.899L-28.8433 222.169L-28.1608 278.595L-27.4782 257.686L-26.7957 246.387L-26.1133 230.301L-25.4307 241.685L-24.7482 265.106L-24.0657 227.679L-23.3831 243.983L-22.7007 264.605L-22.0115 232.761L-21.329 247.174L-20.6465 230.45L-19.964 251.808L-19.2815 272.382L-18.5923 226.241L-17.9099 234.595L-17.2273 261.863L-16.5448 250.98L-15.8623 250.463L-15.1798 222.311L-14.4973 262.392L-13.8148 238.946L-13.1322 261.996L-12.4497 233.504L-11.7673 250.592L-11.0847 262.246L-10.4088 253.169L-9.72629 274.127L-9.04384 235.096L-8.36794 250.762L-7.68541 265.151L-7.00288 233.533L-6.32035 254.652L-5.6379 276.858L-4.95537 234.151L-4.27284 261.006L-3.59031 224.961L-2.90786 262.485L-2.22532 229.909L-1.54279 233.242L-0.85363 261.859L-0.171179 253.541L0.511352 242.598L1.19388 223.886L1.87641 267.506L2.55886 262.477L3.2414 240.085L3.92393 252.394L4.60646 255.189L5.28891 246.031L5.97144 242.695L6.65397 277.868L7.3365 258.473L8.01895 223.672L8.70148 250.968L9.37738 251.396L10.0599 236.542L10.7424 276.349L11.4249 246.334L12.1074 247.288L12.7833 239.834L13.4659 253.82L14.1483 277.451L14.8308 250.164L15.5067 243.123L16.1893 230.224L16.8718 261.2L17.5542 268.419L18.2368 264.747L18.9127 236.098L19.5952 220.222L20.2777 232.806L20.9602 238.259L21.6427 247.445L22.3252 231.424L23.0077 232.466L23.6902 255.133L24.3728 260.069L25.0619 275.48L25.7444 251.715L26.4269 231.214L27.1161 247.95L27.7986 266.355L28.4811 255.318L29.1702 265.522L29.8527 247.502L30.5353 273.606L31.2177 258.38L31.9003 271.404L32.5828 248.306L33.2653 270.984L33.9478 223.955L34.6303 266.763L35.3128 250.374L35.9954 251.396L36.6778 251.804L37.3603 257.968L38.0429 227.586L38.7254 278.122L39.4079 251.412L40.097 276.89L40.7796 239.204L41.4621 248.697L42.1445 271.804L42.8271 273.779L43.5096 251.8L44.1988 241.337L44.8812 267.546L45.5704 248.265L46.2529 268.092L46.9354 274.935L47.6245 237.217L48.3071 262.048L48.9896 265.898L49.6721 234.175L50.3612 222.807L51.0437 242.787L51.7263 248.269L52.4087 268.261L53.0912 278.97L53.7738 227.392L54.4629 262.533L55.1454 228.305L55.8279 255.185L56.5171 245.11L57.1996 275.666L57.8887 224.589L58.5712 268.035L59.2538 252.192L59.9429 236.554L60.6254 277.977L61.3079 229.202L61.9971 264.02L62.6795 271.489L63.362 260.142L64.0512 251.945L64.7337 269.255L65.4162 220.824L66.1054 224.314L66.7879 242.602L67.4771 249.081L68.1595 235.908L68.8487 252.975L69.5312 263.418L70.2137 240.695L70.9028 225.934L71.5853 278.643L72.2679 268.786L72.957 236.296L73.6461 228.439L74.322 245.308L75.0045 269.344L75.687 270.346L76.3695 261.245L77.0587 239.241L77.7412 235.076L78.4237 250.006L79.1128 252.301L79.7954 247.574L80.4845 260.126L81.167 236.057L81.8495 259.827L82.532 237.205L83.2211 241.297L83.9037 256.49L84.5862 279.108L85.2754 271.4L85.9644 242.985L86.647 241.874L87.3361 262.016L88.0187 233.896L88.7011 268.714L89.3903 228.366L90.0794 236.631L90.7619 237.051L91.4511 257.419L92.1402 235.577L92.8228 266.492L93.5118 220.149L94.201 265.652L94.8835 260.703L95.5726 255.116L96.2618 228.047L96.9443 235.548L97.6334 268.799L98.3159 221.749L99.0051 230.838L99.6943 255.31L100.383 266.084L101.072 226.601L101.762 265.632L102.451 239.196L103.133 277.064L103.822 276.098L104.518 233.819L105.207 229.344L105.903 253.242" stroke="white" stroke-width="2.2734" stroke-linecap="round" stroke-linejoin="round"/>
</g>
<defs>
<linearGradient id="paint0_linear_2116_2902" x1="383.382" y1="31" x2="383.382" y2="178.62" gradientUnits="userSpaceOnUse">
<stop stop-color="#BBF771"/>
<stop offset="1" stop-color="#FF65AA"/>
</linearGradient>
<linearGradient id="paint1_linear_2116_2902" x1="909.598" y1="179" x2="909.598" y2="329.38" gradientUnits="userSpaceOnUse">
<stop stop-color="#BBF771"/>
<stop offset="1" stop-color="#FF65AA"/>
</linearGradient>
<linearGradient id="paint2_linear_2116_2902" x1="1432.38" y1="30" x2="1432.38" y2="177.62" gradientUnits="userSpaceOnUse">
<stop stop-color="#BBF771"/>
<stop offset="1" stop-color="#FF65AA"/>
</linearGradient>
<linearGradient id="paint3_linear_2116_2902" x1="-163.271" y1="179" x2="-163.271" y2="321" gradientUnits="userSpaceOnUse">
<stop stop-color="#BBF771"/>
<stop offset="1" stop-color="#FF65AA"/>
</linearGradient>
</defs>
</svg>
