<svg width="554" height="142" viewBox="0 0 554 142" fill="none" xmlns="http://www.w3.org/2000/svg">
<path d="M266.892 88.4063V43.3353H254.688V27.5548H259.407C264.456 27.5548 267.704 23.8126 267.704 18.1169V5.91357H283.979V27.5548H302.69V43.3353H283.979V84.5119C283.979 93.9498 292.935 96.5503 301.713 93.3028L303.667 109.083C286.744 114.297 266.892 109.083 266.892 88.419V88.4063Z" fill="white"/>
<path d="M307.74 87.0996C307.74 76.2029 316.201 67.0821 329.052 64.6465L354.765 59.5978C357.2 59.2679 358.837 57.4793 358.837 55.3736C358.837 47.0773 352.811 41.0518 344.35 41.0518C335.889 41.0518 328.734 47.2422 328.075 56.5152L310.506 52.291C313.106 36.6627 326.781 25.6011 343.538 25.6011C362.414 25.6011 375.924 38.2991 375.924 55.8683V92.6431L376.254 108.918H362.744L359.814 97.8567C354.765 105.836 345.492 110.872 334.43 110.872C318.485 110.872 307.74 101.269 307.74 87.1122V87.0996ZM338.654 94.5839C350.046 94.5839 358.837 86.2877 358.837 74.0844V70.3422C357.213 70.6721 355.424 71.1541 353.636 71.4839L335.902 74.744C329.876 75.8857 326.134 79.7928 326.134 84.8289C326.134 90.6895 330.853 94.5966 338.667 94.5966L338.654 94.5839Z" fill="white"/>
<path d="M406.179 97.1835V141.442H389.092V27.5417H402.919L405.519 39.9097C412.027 30.9667 421.96 25.5881 433.668 25.5881C454.827 25.5881 470.113 43.1572 470.113 67.8933C470.113 92.6295 454.815 110.858 433.668 110.858C422.277 110.858 412.674 105.809 406.166 97.1835H406.179ZM452.557 68.2232C452.557 52.9248 442.789 42.0282 429.292 42.0282C415.794 42.0282 406.027 52.9248 406.027 68.2232C406.027 83.5215 415.794 94.101 429.292 94.101C442.789 94.101 452.557 83.2044 452.557 68.2232Z" fill="white"/>
<path d="M475.67 68.2235C475.67 43.3222 492.11 25.5881 515.21 25.5881C541.088 25.5881 556.057 47.724 553.774 73.5894H493.886C496.005 85.9576 504.783 94.2538 516.504 94.2538C525.777 94.2538 533.261 89.0529 535.215 81.4036L552.632 87.594C548.395 101.421 533.921 110.859 516.339 110.859C492.415 110.859 475.657 93.1248 475.657 68.2235H475.67ZM535.875 60.9041C534.251 49.5127 525.79 41.8634 515.21 41.8634C504.631 41.8634 496.334 49.5127 494.051 60.9041H535.875Z" fill="white"/>
<path d="M221.22 54.9148V78.9435C221.22 84.1901 220.072 88.9132 217.776 93.113C215.48 97.3086 212.323 100.6 208.305 102.989C204.288 105.373 199.794 106.567 194.817 106.567C189.844 106.567 185.347 105.373 181.329 102.989C177.311 100.605 174.154 97.3127 171.859 93.113C169.563 88.9132 168.415 84.1901 168.415 78.9435V38.1118C168.415 32.8652 167.267 28.1421 164.971 23.9423C162.675 19.7467 159.518 16.4548 155.501 14.0667C151.483 11.6826 146.985 10.4885 142.012 10.4885C137.039 10.4885 132.542 11.6826 128.524 14.0667C124.506 16.4507 121.35 19.7426 119.054 23.9423C116.758 28.1421 115.61 32.8652 115.61 38.1118V78.9435C115.61 84.1901 114.462 88.9132 112.166 93.113C109.87 97.3086 106.713 100.6 102.696 102.989C98.6778 105.373 94.1845 106.567 89.2074 106.567C84.2344 106.567 79.7369 105.373 75.7192 102.989C71.7014 100.605 68.5446 97.3127 66.2487 93.113C63.9528 88.9132 62.8049 84.1901 62.8049 78.9435V38.1118C62.8049 32.8652 61.657 28.1421 59.3611 23.9423C57.0653 19.7467 53.9084 16.4548 49.8907 14.0667C45.8729 11.6826 41.3755 10.4885 36.4025 10.4885C31.4294 10.4885 26.932 11.6826 22.9142 14.0667C18.8965 16.4507 15.7397 19.7426 13.4438 23.9423C11.1479 28.1421 10 32.8652 10 38.1118V76.6208" stroke="white" stroke-width="19.6627"/>
</svg>
