<svg width="56" height="28" viewBox="0 0 56 28" fill="none" xmlns="http://www.w3.org/2000/svg">
<path d="M53.547 12.842V18.7061C53.547 19.9865 53.2668 21.1391 52.7065 22.164C52.1462 23.1879 51.3758 23.9913 50.3953 24.5741C49.4148 25.1559 48.3182 25.4474 47.1036 25.4474C45.89 25.4474 44.7924 25.1559 43.8119 24.5741C42.8314 23.9923 42.061 23.1889 41.5007 22.164C40.9404 21.1391 40.6602 19.9865 40.6602 18.7061V8.7413C40.6602 7.4609 40.3801 6.30825 39.8198 5.28333C39.2595 4.25941 38.4891 3.45604 37.5086 2.87323C36.5281 2.29141 35.4305 2 34.2169 2C33.0032 2 31.9056 2.29141 30.9251 2.87323C29.9446 3.45504 29.1742 4.25841 28.6139 5.28333C28.0536 6.30825 27.7735 7.4609 27.7735 8.7413V18.7061C27.7735 19.9865 27.4933 21.1391 26.933 22.164C26.3727 23.1879 25.6023 23.9913 24.6218 24.5741C23.6413 25.1559 22.5447 25.4474 21.3301 25.4474C20.1165 25.4474 19.0189 25.1559 18.0384 24.5741C17.0579 23.9923 16.2875 23.1889 15.7272 22.164C15.1669 21.1391 14.8867 19.9865 14.8867 18.7061V8.7413C14.8867 7.4609 14.6066 6.30825 14.0463 5.28333C13.486 4.25941 12.7156 3.45604 11.7351 2.87323C10.7546 2.29141 9.657 2 8.44337 2C7.22974 2 6.13216 2.29141 5.15165 2.87323C4.17114 3.45504 3.40073 4.25841 2.84044 5.28333C2.28015 6.30825 2 7.4609 2 8.7413V18.1392" stroke="white" stroke-width="4"/>
</svg>
